<?xml version="1.0" standalone="no"?>
<!DOCTYPE svg PUBLIC "-//W3C//DTD SVG 20010904//EN"
 "http://www.w3.org/TR/2001/REC-SVG-20010904/DTD/svg10.dtd">
<svg version="1.0" xmlns="http://www.w3.org/2000/svg"
 width="1500.000000pt" height="1500.000000pt" viewBox="0 0 1500.000000 1500.000000"
 preserveAspectRatio="xMidYMid meet">
<metadata>
Created by potrace 1.15, written by Peter Selinger 2001-2017
</metadata>
<g transform="translate(0.000000,1500.000000) scale(0.100000,-0.100000)"
fill="#000000" stroke="none">
<path d="M1495 11251 c-15 -13 -143 -23 -150 -11 -10 16 -42 11 -47 -7 -3 -12
-27 -24 -74 -37 -68 -19 -268 -116 -288 -140 -6 -7 -38 -35 -71 -63 -33 -28
-82 -81 -110 -117 -27 -35 -56 -65 -63 -65 -7 -1 -12 -7 -11 -13 3 -27 -2 -38
-17 -38 -11 0 -14 -6 -9 -21 5 -15 2 -22 -15 -26 -12 -3 -20 -13 -19 -22 1 -9
-3 -27 -8 -41 -6 -14 -14 -33 -17 -42 -3 -11 -11 -15 -21 -12 -11 5 -15 -1
-15 -19 0 -14 4 -28 10 -32 13 -8 1 -35 -16 -35 -8 0 -14 -6 -14 -14 0 -8 -6
-17 -12 -19 -8 -3 -5 -6 5 -6 16 -1 18 -7 12 -43 -4 -24 -11 -44 -16 -46 -12
-5 -12 -5759 0 -5764 5 -1 12 -22 16 -45 6 -37 4 -43 -12 -44 -10 0 -13 -3 -5
-6 6 -2 12 -11 12 -19 0 -8 6 -14 14 -14 17 0 29 -27 16 -35 -6 -4 -10 -18
-10 -32 0 -18 4 -24 15 -19 10 3 18 -1 21 -12 3 -9 11 -28 17 -42 5 -14 9 -32
8 -41 -1 -9 7 -19 19 -22 17 -4 20 -11 15 -26 -5 -15 -2 -21 9 -21 15 0 20
-11 17 -37 -1 -7 4 -13 11 -14 7 0 36 -30 63 -65 28 -36 77 -89 110 -117 33
-28 65 -56 71 -63 20 -24 220 -121 288 -140 47 -13 71 -25 74 -37 5 -18 37
-23 47 -7 7 12 135 2 150 -11 12 -12 11998 -12 12011 0 14 13 142 23 149 11
10 -16 42 -11 47 8 3 11 27 23 74 36 68 19 268 116 288 140 6 7 38 35 71 63
33 28 83 81 110 117 28 35 56 65 63 65 7 1 12 7 11 13 -3 27 2 38 17 38 11 0
14 6 9 21 -5 16 -2 22 15 26 14 4 20 12 17 23 -2 9 2 25 9 35 8 10 14 27 14
37 0 11 7 18 20 18 15 0 20 7 20 24 0 14 -4 27 -10 31 -13 8 -1 35 16 35 8 0
14 6 14 14 0 8 6 17 13 19 7 3 4 6 -6 6 -16 1 -18 7 -12 44 4 23 11 44 16 45
12 5 12 5759 0 5764 -5 2 -12 22 -16 46 -6 36 -4 42 12 43 10 0 13 3 6 6 -7 2
-13 11 -13 19 0 8 -6 14 -14 14 -17 0 -29 27 -16 35 6 4 10 18 10 32 0 18 -4
24 -15 19 -10 -3 -18 1 -21 12 -3 9 -11 28 -17 42 -5 14 -9 32 -8 41 1 9 -7
19 -19 22 -17 4 -20 11 -15 26 5 15 2 21 -9 21 -15 0 -20 11 -17 38 1 6 -4 12
-11 13 -7 0 -35 30 -63 65 -27 36 -77 89 -110 117 -33 28 -65 56 -71 63 -20
24 -220 121 -288 140 -47 13 -71 25 -74 37 -5 18 -37 23 -47 7 -7 -12 -135 -2
-149 11 -13 12 -11999 12 -12011 0z m11335 -3751 l0 -3320 -5330 0 -5330 0 0
3320 c0 1826 0 3321 0 3323 0 1 2399 1 5330 0 l5330 -3 0 -3320z m-11577 746
c16 -13 17 -57 17 -746 0 -689 -1 -733 -17 -746 -31 -23 -75 -16 -107 16 -23
23 -27 33 -18 42 17 17 17 1359 0 1376 -8 8 -8 15 2 26 7 9 16 14 20 11 4 -3
10 4 13 15 6 24 61 27 90 6z m12373 -1 c86 -18 143 -41 151 -60 3 -8 11 -15
18 -15 8 0 27 -12 45 -26 23 -20 29 -32 24 -47 -5 -15 -3 -19 9 -14 20 8 60
-58 54 -90 -2 -12 -1 -20 4 -18 4 3 10 1 14 -5 3 -5 6 -217 6 -470 0 -253 -3
-465 -6 -470 -4 -6 -10 -8 -14 -5 -5 2 -6 -6 -4 -18 6 -32 -34 -98 -54 -90
-12 5 -14 1 -9 -14 5 -15 -1 -27 -24 -47 -18 -14 -37 -26 -45 -26 -7 0 -15 -7
-18 -15 -8 -19 -65 -42 -150 -60 -60 -12 -78 -12 -135 0 -73 15 -132 41 -145
62 -4 7 -14 13 -21 13 -14 0 -81 69 -108 111 -9 14 -14 36 -11 51 4 19 0 27
-11 30 -15 3 -17 45 -17 478 0 433 2 475 17 478 11 3 15 11 11 30 -3 15 2 37
11 51 27 42 94 111 108 111 7 0 17 6 21 14 15 25 85 51 203 75 3 1 37 -6 76
-14z"/>
<path d="M5025 10381 c-73 -29 -136 -59 -145 -70 -3 -4 -29 -24 -57 -45 -75
-53 -166 -178 -192 -263 -12 -37 -26 -76 -32 -85 -5 -10 -9 -187 -9 -423 l0
-405 140 0 140 0 0 348 c0 218 4 342 10 332 16 -25 24 -1 13 40 -5 21 -7 43
-3 47 4 4 15 29 24 54 41 109 186 209 279 193 34 -5 39 -4 34 10 -6 15 25 16
338 16 l345 0 0 140 0 140 -407 -1 -408 -1 -70 -27z"/>
<path d="M9100 10270 l0 -140 341 0 c187 0 338 -4 335 -8 -3 -5 8 -9 23 -9 40
0 122 -24 116 -34 -3 -4 3 -13 14 -18 25 -14 41 -14 21 -1 -8 5 -10 10 -4 10
7 0 34 -20 60 -45 27 -25 43 -45 36 -45 -7 0 -10 -5 -7 -10 4 -6 11 -8 16 -5
5 3 6 -2 2 -11 -4 -12 -3 -15 5 -10 7 4 17 -7 27 -31 8 -21 18 -44 23 -52 5
-8 4 -32 -2 -52 -10 -40 -2 -64 14 -39 6 10 10 -114 10 -332 l0 -348 140 0
140 0 0 413 c0 227 -4 417 -9 423 -16 17 -40 105 -34 121 4 10 2 14 -5 9 -6
-3 -13 2 -17 13 -3 11 -19 36 -35 56 -16 21 -27 42 -24 47 7 11 -17 42 -25 31
-3 -4 -28 14 -56 40 -29 27 -41 45 -30 41 18 -6 18 -5 -2 10 -12 9 -28 13 -37
10 -9 -3 -16 -2 -16 3 0 11 -52 37 -150 74 l-75 29 -397 0 -398 0 0 -140z"/>
<path d="M7442 10105 c-31 -13 -99 -59 -327 -218 -208 -146 -230 -160 -212
-140 9 11 14 22 11 26 -7 6 -94 -53 -94 -65 0 -4 -5 -8 -10 -8 -11 0 -62 -34
-87 -56 -7 -7 -9 -15 -5 -19 4 -5 1 -5 -6 -1 -15 9 -45 -12 -36 -25 3 -5 -5
-9 -18 -9 -16 0 -19 -3 -10 -9 10 -6 3 -16 -30 -38 -23 -16 -74 -51 -113 -78
-38 -27 -91 -64 -117 -82 -27 -18 -69 -48 -95 -66 -256 -179 -350 -244 -363
-250 -8 -5 -5 0 8 9 24 18 29 34 10 34 -18 0 -61 -47 -54 -59 3 -5 -3 -7 -14
-4 -12 3 -22 -1 -26 -11 -3 -9 -14 -16 -25 -16 -10 0 -22 -6 -26 -13 -4 -6
-19 -18 -33 -25 -39 -20 -58 -37 -62 -52 -3 -16 -86 -82 -199 -158 -42 -28
-88 -65 -103 -83 -59 -70 -56 -4 -56 -1195 0 -1091 0 -1093 21 -1131 11 -21
35 -53 52 -72 18 -19 26 -31 20 -27 -8 4 -13 1 -13 -8 0 -8 10 -18 23 -22 12
-4 26 -12 30 -18 6 -7 7 -4 3 7 -7 23 -5 22 76 -33 45 -30 62 -47 52 -50 -12
-4 -9 -10 11 -28 20 -18 30 -20 40 -12 18 15 143 -72 141 -97 -1 -13 6 -18 24
-18 14 0 51 -17 82 -38 59 -39 77 -57 58 -57 -6 0 -9 -4 -5 -10 3 -5 12 -7 20
-3 8 3 15 0 15 -6 0 -7 6 -11 13 -9 7 2 43 -16 79 -40 54 -35 65 -47 60 -64
-4 -18 -2 -20 19 -15 18 5 41 -5 93 -40 38 -26 64 -49 58 -51 -20 -6 -13 -21
18 -37 34 -17 44 -19 35 -5 -13 21 13 8 75 -37 36 -25 59 -48 52 -51 -17 -5 6
-27 38 -36 19 -6 21 -5 10 3 -8 6 -11 11 -6 11 20 0 148 -93 137 -99 -18 -11
24 -45 45 -37 12 4 37 -6 73 -31 31 -20 57 -38 59 -39 2 -1 5 -10 6 -20 2 -10
13 -25 26 -33 15 -10 21 -11 16 -3 -13 21 5 14 71 -29 64 -42 73 -53 51 -63
-7 -4 -3 -4 10 -2 12 2 20 1 17 -4 -3 -4 1 -13 9 -19 11 -9 15 -9 18 0 6 17
133 -74 133 -95 0 -17 30 -46 47 -46 4 0 5 7 1 16 -4 11 18 0 58 -26 80 -54
76 -50 60 -59 -51 -32 114 -42 184 -12 32 14 268 173 334 225 12 9 12 8 0 -12
-8 -12 -24 -25 -36 -28 -24 -6 -40 -34 -19 -34 7 0 21 9 31 20 10 11 24 20 30
20 7 0 15 7 19 15 3 8 10 15 16 15 18 0 53 38 46 49 -4 7 -1 9 8 5 13 -5 77
31 84 49 2 4 9 7 16 7 7 0 21 9 31 20 10 11 15 20 11 20 -12 0 27 35 79 71 28
19 52 36 55 39 3 3 39 28 80 56 41 28 107 72 145 99 117 81 163 113 218 152
28 20 79 55 112 78 78 54 85 58 85 46 0 -6 -6 -11 -14 -11 -16 0 -31 -18 -23
-27 6 -5 22 6 65 47 15 13 32 23 39 22 6 -1 14 6 18 17 3 11 12 18 19 15 8 -3
20 4 28 15 8 12 18 18 21 15 7 -8 35 19 39 37 4 17 50 53 198 154 63 43 144
99 180 123 86 59 122 94 148 143 l22 41 0 1130 c0 687 -4 1127 -9 1123 -12 -7
-123 103 -116 115 8 13 -23 32 -43 26 -13 -5 -39 8 -82 39 -34 26 -59 49 -56
52 9 9 -24 43 -41 43 -8 0 -11 -5 -7 -12 8 -13 -53 22 -104 60 -24 19 -30 27
-20 33 10 7 9 9 -3 9 -9 0 -20 7 -23 16 -4 9 -13 13 -24 10 -25 -8 -134 69
-130 92 2 11 -3 16 -14 16 -10 -1 -18 2 -18 7 0 5 -6 6 -14 3 -7 -3 -41 14
-75 38 -34 23 -57 44 -52 46 16 5 13 22 -4 22 -8 0 -15 5 -15 11 0 6 -8 8 -19
4 -13 -4 -37 6 -73 31 -77 53 -80 56 -69 63 18 12 -6 32 -40 35 -41 3 -153 76
-140 89 6 6 4 15 -4 23 -16 17 -32 18 -37 4 -2 -6 -34 11 -72 37 -38 26 -63
49 -57 51 14 5 14 22 0 22 -6 0 -17 7 -25 15 -17 17 -39 21 -29 5 12 -19 -9
-10 -70 31 -44 30 -61 48 -61 63 1 12 -5 20 -11 18 -7 -1 -13 3 -13 9 0 6 -9
8 -20 4 -28 -9 -145 72 -130 90 12 15 -10 28 -50 29 -28 2 -139 78 -121 84 15
5 14 22 -1 22 -6 0 -20 8 -30 17 -14 13 -21 14 -27 5 -5 -8 -25 1 -65 28 -32
22 -63 40 -68 40 -5 0 -6 5 -3 10 9 15 -85 11 -123 -5z m139 -493 c-6 -2 -11
-11 -11 -19 0 -11 7 -14 26 -9 16 4 23 3 19 -3 -3 -6 0 -8 9 -5 8 3 42 -13 75
-36 61 -42 85 -65 57 -54 -29 11 -16 -11 18 -33 28 -18 35 -19 38 -8 4 21 143
-77 143 -102 0 -13 7 -18 25 -18 35 0 141 -70 134 -89 -6 -16 30 -41 46 -31
11 7 140 -74 140 -88 0 -4 -4 -5 -10 -2 -22 14 -8 -11 17 -29 18 -14 28 -16
31 -8 3 9 9 9 25 0 45 -24 127 -89 122 -97 -7 -13 20 -32 37 -26 8 3 39 -13
71 -35 41 -29 54 -45 50 -57 -5 -13 -2 -15 15 -11 12 4 20 2 16 -3 -3 -5 3 -9
14 -9 10 0 45 -18 78 -41 68 -47 88 -65 62 -56 -26 9 -21 -5 9 -27 18 -14 28
-16 31 -8 4 14 24 5 95 -46 34 -25 45 -37 36 -43 -8 -4 -11 -9 -9 -11 3 -2 20
-11 37 -21 30 -16 32 -16 26 -1 -5 15 -4 15 21 -1 33 -22 38 -17 -114 -119
-64 -44 -97 -62 -75 -42 22 20 34 36 27 36 -16 0 -74 -38 -85 -57 -4 -7 -14
-13 -20 -13 -7 0 -20 -9 -30 -20 -9 -11 -24 -20 -32 -20 -8 0 -15 -5 -15 -10
0 -6 -8 -14 -17 -17 -32 -12 -73 -47 -92 -78 -10 -16 -69 -65 -132 -108 -63
-43 -148 -101 -189 -130 -41 -29 -127 -88 -190 -132 -63 -43 -144 -99 -180
-123 -36 -25 -56 -36 -46 -24 11 12 16 25 13 29 -10 10 -48 -29 -43 -44 3 -7
1 -15 -4 -18 -6 -4 -10 -1 -10 4 0 16 -16 13 -34 -4 -8 -8 -19 -15 -26 -15 -6
0 -15 -11 -21 -24 -7 -14 -17 -22 -24 -20 -6 3 -18 -2 -25 -11 -7 -8 -19 -15
-26 -15 -8 0 -14 -4 -14 -9 0 -16 -42 -57 -108 -105 l-62 -46 -53 37 c-66 47
-64 45 -49 50 8 3 3 12 -14 25 -18 15 -28 18 -33 9 -5 -8 -30 5 -79 39 -40 28
-71 54 -71 58 4 24 -3 32 -24 27 -16 -4 -37 5 -77 35 -30 23 -54 46 -52 52 5
18 -20 39 -40 32 -24 -7 -161 83 -154 102 7 19 -23 42 -33 25 -12 -19 -133 65
-127 88 4 11 -5 21 -29 33 -29 14 -33 15 -28 2 3 -8 -27 6 -66 33 -40 26 -68
49 -62 51 19 6 12 17 -21 36 -29 18 -31 18 -24 1 6 -17 5 -17 -21 1 -71 46
-107 76 -109 91 -4 27 -31 48 -46 36 -10 -8 -30 1 -78 33 -36 24 -59 44 -52
44 16 0 16 30 0 32 -7 0 -25 2 -39 3 -35 3 -153 86 -137 96 9 6 7 14 -9 29
-25 23 -39 25 -46 8 -3 -9 -8 -10 -16 -2 -8 7 1 19 36 44 31 23 44 28 40 17
-8 -21 7 -22 27 -1 20 19 20 25 1 18 -23 -9 -18 2 10 20 21 14 24 14 19 1 -8
-20 2 -19 43 6 19 12 32 27 29 34 -3 8 2 11 13 8 10 -2 23 3 30 11 8 9 20 16
27 16 7 0 19 10 26 23 7 12 20 22 28 22 8 0 14 8 14 17 -2 17 53 59 261 203
39 27 91 64 117 82 231 161 370 254 364 244 -9 -14 12 -24 26 -11 7 5 26 20
41 31 17 13 26 27 23 36 -4 10 -1 13 12 9 21 -7 47 8 38 22 -4 6 2 8 14 5 12
-3 22 1 26 11 3 9 9 14 13 12 10 -7 42 21 45 38 2 16 54 56 198 156 l70 48 44
-31 c25 -17 40 -33 35 -35z m-1771 -1470 c-15 -5 -12 -32 4 -32 7 0 20 -7 27
-16 12 -14 14 -14 19 0 4 12 18 6 73 -31 40 -28 63 -50 56 -54 -18 -11 1 -31
25 -25 14 4 42 -8 89 -40 37 -25 65 -49 63 -53 -3 -4 2 -18 10 -30 13 -18 19
-20 30 -10 12 10 28 3 84 -36 39 -27 66 -51 60 -55 -6 -4 0 -15 15 -28 29 -26
39 -28 31 -7 -8 22 -2 19 57 -21 78 -55 80 -56 67 -64 -7 -4 -1 -14 16 -25 17
-11 29 -13 33 -7 4 7 33 -8 74 -35 37 -26 63 -49 58 -53 -6 -3 -6 -11 -2 -19
5 -7 14 -10 20 -7 6 4 11 3 11 -3 0 -6 6 -8 14 -5 17 7 138 -75 133 -90 -6
-17 21 -38 41 -32 12 4 41 -11 89 -46 38 -29 70 -56 71 -61 2 -23 11 -32 19
-20 14 19 139 -71 135 -97 -3 -21 12 -28 23 -10 4 6 14 4 28 -5 l22 -14 -3
-826 -2 -827 -48 35 c-26 20 -47 43 -47 54 0 10 -6 17 -12 15 -7 -1 -13 2 -13
7 0 5 -7 12 -16 15 -10 4 -13 2 -8 -6 11 -18 -20 -3 -86 42 -56 38 -71 52 -52
49 34 -6 10 24 -28 35 -20 6 -22 5 -10 -4 33 -26 -26 2 -82 38 -38 25 -56 43
-55 56 2 23 -30 46 -41 29 -12 -19 -133 67 -126 90 3 9 0 17 -6 17 -6 0 -19 7
-27 16 -12 12 -18 12 -23 3 -6 -8 -26 1 -69 31 -33 23 -58 47 -55 52 10 15
-16 37 -39 32 -28 -5 -148 75 -144 96 3 15 -28 50 -44 50 -5 0 -5 -7 -2 -17 8
-19 1 -16 -72 35 -51 36 -81 61 -57 48 7 -5 12 -1 12 10 0 11 -6 15 -19 11
-13 -3 -18 0 -15 8 3 7 -2 15 -12 19 -12 4 -15 2 -10 -9 8 -22 4 -20 -69 31
-40 28 -62 50 -55 54 17 10 -15 33 -37 26 -13 -4 -41 9 -83 40 -81 58 -91 67
-65 59 17 -6 16 -3 -5 15 -24 21 -25 27 -24 139 0 64 4 129 8 144 6 18 4 37
-4 52 -9 16 -11 54 -6 132 3 59 5 120 5 136 -4 94 -1 257 4 286 4 20 2 39 -4
47 -11 13 -8 192 4 259 3 16 1 35 -4 42 -6 7 -8 54 -5 120 7 144 7 158 0 231
l-6 63 36 -23 c19 -13 31 -24 26 -26z m3434 -172 c-4 -19 -6 -46 -4 -60 6 -46
3 -244 -3 -279 -4 -20 -2 -39 4 -47 11 -13 8 -192 -4 -259 -3 -16 -1 -35 5
-42 6 -8 8 -55 4 -125 -3 -62 -5 -125 -4 -140 2 -109 0 -259 -5 -290 -3 -21
-1 -40 4 -44 5 -3 9 -38 9 -79 0 -72 -1 -73 -32 -93 -18 -11 -67 -43 -108 -72
-232 -163 -293 -202 -287 -187 8 21 -6 22 -22 3 -9 -11 -9 -15 0 -18 7 -2 6
-8 -5 -17 -14 -12 -16 -12 -10 3 3 9 1 16 -5 16 -14 0 -73 -40 -84 -57 -4 -7
-14 -13 -22 -13 -16 0 -46 -40 -39 -52 3 -4 -2 -5 -10 -2 -17 6 -86 -42 -86
-60 0 -6 -19 -24 -42 -41 -72 -51 -180 -126 -258 -179 -41 -28 -77 -53 -80
-56 -3 -3 -39 -28 -80 -56 -41 -28 -118 -81 -170 -117 -66 -47 -96 -62 -98
-52 -3 11 -15 7 -53 -17 -31 -19 -48 -36 -45 -44 3 -7 1 -16 -4 -19 -6 -4 -11
303 -12 814 l-3 821 45 32 c174 123 230 158 230 144 0 -21 6 -20 32 4 25 23
17 39 -9 19 -16 -13 -17 -12 -4 4 9 11 21 15 33 11 20 -6 62 22 53 36 -3 5 4
6 15 3 11 -3 20 0 20 6 0 6 10 16 23 21 31 14 61 33 69 45 29 44 93 95 280
223 71 49 189 130 355 245 62 43 110 71 107 63 -7 -18 4 -20 26 -6 12 8 13 11
1 19 -9 6 -10 11 -2 15 6 4 11 2 11 -3 0 -6 5 -11 10 -11 14 0 72 41 83 58 4
6 12 12 18 12 5 0 15 5 22 10 7 6 32 25 56 42 24 18 39 34 33 36 -6 2 1 14 16
27 l27 23 3 -91 c2 -51 0 -108 -4 -127z"/>
<path d="M4590 5500 c0 -233 4 -408 9 -418 6 -9 19 -47 31 -84 12 -37 35 -85
51 -108 17 -23 26 -39 20 -36 -16 10 -13 -6 6 -29 l16 -20 -7 20 c-4 11 14 -2
41 -30 26 -27 44 -52 40 -53 -10 -5 12 -32 25 -32 5 0 6 5 2 11 -8 14 28 -5
48 -25 8 -7 29 -21 46 -30 18 -9 30 -21 27 -26 -3 -6 0 -7 8 -4 7 2 45 -7 84
-21 l70 -25 402 0 401 0 0 140 0 140 -347 0 c-198 0 -342 4 -334 9 21 13 -4
23 -42 16 -56 -11 -141 28 -203 94 -30 31 -54 60 -54 66 0 5 5 3 11 -5 9 -12
10 -12 5 3 -3 10 -6 23 -6 28 0 5 -6 9 -14 9 -24 0 -55 113 -35 126 15 9 10
26 -6 20 -13 -5 -15 36 -15 329 l0 335 -140 0 -140 0 0 -400z"/>
<path d="M10130 5553 c0 -193 -4 -342 -9 -335 -5 9 -8 -1 -7 -25 1 -21 -1 -42
-5 -48 -3 -5 -14 -32 -24 -58 -26 -70 -107 -149 -179 -176 -31 -11 -65 -21
-76 -21 -10 0 -22 -4 -25 -10 -4 -6 -133 -10 -356 -10 l-349 0 0 -140 0 -140
408 0 c224 0 412 4 418 9 5 5 27 14 49 21 43 14 137 58 145 69 3 4 27 22 53
41 50 35 142 142 169 195 8 17 23 55 33 85 10 30 21 59 26 65 5 5 9 193 9 417
l0 408 -140 0 -140 0 0 -347z"/>
</g>
</svg>
